<mxfile host="app.diagrams.net" modified="2022-04-22T11:43:26.841Z" agent="5.0 (Windows NT 10.0; Win64; x64) AppleWebKit/537.36 (KHTML, like Gecko) Chrome/101.0.4948.0 Safari/537.36" etag="WhUUp-k4YIELEYuqaJB3" version="17.4.6" type="github">
  <diagram id="6a731a19-8d31-9384-78a2-239565b7b9f0" name="Page-1">
    <mxGraphModel dx="1154" dy="606" grid="1" gridSize="10" guides="1" tooltips="1" connect="1" arrows="1" fold="1" page="1" pageScale="1" pageWidth="1169" pageHeight="827" background="none" math="0" shadow="0">
      <root>
        <mxCell id="0" />
        <mxCell id="1" parent="0" />
        <mxCell id="1YBdiQAtLYqquhOwN3TU-65" style="edgeStyle=orthogonalEdgeStyle;rounded=0;orthogonalLoop=1;jettySize=auto;html=1;exitX=0.5;exitY=1;exitDx=0;exitDy=0;" edge="1" parent="1" source="1YBdiQAtLYqquhOwN3TU-55" target="1YBdiQAtLYqquhOwN3TU-56">
          <mxGeometry relative="1" as="geometry" />
        </mxCell>
        <mxCell id="1YBdiQAtLYqquhOwN3TU-55" value="НАЧАЛО" style="rounded=1;whiteSpace=wrap;html=1;" vertex="1" parent="1">
          <mxGeometry x="511.88" y="40" width="120" height="60" as="geometry" />
        </mxCell>
        <mxCell id="1YBdiQAtLYqquhOwN3TU-66" style="edgeStyle=orthogonalEdgeStyle;rounded=0;orthogonalLoop=1;jettySize=auto;html=1;exitX=0.5;exitY=1;exitDx=0;exitDy=0;entryX=0.5;entryY=0;entryDx=0;entryDy=0;" edge="1" parent="1" source="1YBdiQAtLYqquhOwN3TU-56" target="1YBdiQAtLYqquhOwN3TU-57">
          <mxGeometry relative="1" as="geometry" />
        </mxCell>
        <mxCell id="1YBdiQAtLYqquhOwN3TU-56" value="Arr[], iteration=0, Result=0" style="shape=parallelogram;perimeter=parallelogramPerimeter;whiteSpace=wrap;html=1;fixedSize=1;" vertex="1" parent="1">
          <mxGeometry x="481.88" y="140" width="180" height="60" as="geometry" />
        </mxCell>
        <mxCell id="1YBdiQAtLYqquhOwN3TU-67" value="ДА" style="edgeStyle=orthogonalEdgeStyle;rounded=0;orthogonalLoop=1;jettySize=auto;html=1;exitX=0.5;exitY=1;exitDx=0;exitDy=0;entryX=0.5;entryY=0;entryDx=0;entryDy=0;" edge="1" parent="1" source="1YBdiQAtLYqquhOwN3TU-57" target="1YBdiQAtLYqquhOwN3TU-59">
          <mxGeometry relative="1" as="geometry" />
        </mxCell>
        <mxCell id="1YBdiQAtLYqquhOwN3TU-68" value="НЕТ" style="edgeStyle=orthogonalEdgeStyle;rounded=0;orthogonalLoop=1;jettySize=auto;html=1;exitX=1;exitY=0.5;exitDx=0;exitDy=0;entryX=0;entryY=0.5;entryDx=0;entryDy=0;" edge="1" parent="1" source="1YBdiQAtLYqquhOwN3TU-57" target="1YBdiQAtLYqquhOwN3TU-58">
          <mxGeometry relative="1" as="geometry" />
        </mxCell>
        <mxCell id="1YBdiQAtLYqquhOwN3TU-57" value="Arr.length &amp;gt; 0" style="rhombus;whiteSpace=wrap;html=1;" vertex="1" parent="1">
          <mxGeometry x="500.01" y="238" width="143.75" height="80" as="geometry" />
        </mxCell>
        <mxCell id="1YBdiQAtLYqquhOwN3TU-75" style="edgeStyle=orthogonalEdgeStyle;rounded=0;orthogonalLoop=1;jettySize=auto;html=1;entryX=0.5;entryY=0;entryDx=0;entryDy=0;" edge="1" parent="1" source="1YBdiQAtLYqquhOwN3TU-58" target="1YBdiQAtLYqquhOwN3TU-71">
          <mxGeometry relative="1" as="geometry">
            <Array as="points">
              <mxPoint x="910" y="730" />
              <mxPoint x="572" y="730" />
            </Array>
          </mxGeometry>
        </mxCell>
        <mxCell id="1YBdiQAtLYqquhOwN3TU-58" value="Массив не задан!" style="shape=document;whiteSpace=wrap;html=1;boundedLbl=1;" vertex="1" parent="1">
          <mxGeometry x="843.27" y="238" width="120" height="80" as="geometry" />
        </mxCell>
        <mxCell id="1YBdiQAtLYqquhOwN3TU-69" value="ДА" style="edgeStyle=orthogonalEdgeStyle;rounded=0;orthogonalLoop=1;jettySize=auto;html=1;exitX=0.5;exitY=1;exitDx=0;exitDy=0;entryX=0.5;entryY=0;entryDx=0;entryDy=0;" edge="1" parent="1" source="1YBdiQAtLYqquhOwN3TU-59" target="1YBdiQAtLYqquhOwN3TU-60">
          <mxGeometry relative="1" as="geometry" />
        </mxCell>
        <mxCell id="1YBdiQAtLYqquhOwN3TU-70" value="НЕТ" style="edgeStyle=orthogonalEdgeStyle;rounded=0;orthogonalLoop=1;jettySize=auto;html=1;exitX=1;exitY=0.5;exitDx=0;exitDy=0;" edge="1" parent="1" source="1YBdiQAtLYqquhOwN3TU-59" target="1YBdiQAtLYqquhOwN3TU-61">
          <mxGeometry relative="1" as="geometry" />
        </mxCell>
        <mxCell id="1YBdiQAtLYqquhOwN3TU-59" value="iteration &amp;lt; Arr.length" style="rhombus;whiteSpace=wrap;html=1;" vertex="1" parent="1">
          <mxGeometry x="500" y="350" width="143.76" height="80" as="geometry" />
        </mxCell>
        <mxCell id="1YBdiQAtLYqquhOwN3TU-72" style="edgeStyle=orthogonalEdgeStyle;rounded=0;orthogonalLoop=1;jettySize=auto;html=1;exitX=0.5;exitY=1;exitDx=0;exitDy=0;entryX=0;entryY=0.5;entryDx=0;entryDy=0;" edge="1" parent="1" source="1YBdiQAtLYqquhOwN3TU-60" target="1YBdiQAtLYqquhOwN3TU-59">
          <mxGeometry relative="1" as="geometry">
            <Array as="points">
              <mxPoint x="572" y="560" />
              <mxPoint x="440" y="560" />
              <mxPoint x="440" y="390" />
            </Array>
          </mxGeometry>
        </mxCell>
        <mxCell id="1YBdiQAtLYqquhOwN3TU-60" value="&lt;div&gt;Result += Arr[iteration]&lt;/div&gt;&lt;div&gt;iteration++&lt;/div&gt;" style="rounded=0;whiteSpace=wrap;html=1;" vertex="1" parent="1">
          <mxGeometry x="495.25" y="470" width="153.27" height="60" as="geometry" />
        </mxCell>
        <mxCell id="1YBdiQAtLYqquhOwN3TU-73" style="edgeStyle=orthogonalEdgeStyle;rounded=0;orthogonalLoop=1;jettySize=auto;html=1;exitX=0.5;exitY=1;exitDx=0;exitDy=0;entryX=0.5;entryY=0;entryDx=0;entryDy=0;" edge="1" parent="1" source="1YBdiQAtLYqquhOwN3TU-61" target="1YBdiQAtLYqquhOwN3TU-63">
          <mxGeometry relative="1" as="geometry" />
        </mxCell>
        <mxCell id="1YBdiQAtLYqquhOwN3TU-61" value="Result /= iteration" style="rounded=0;whiteSpace=wrap;html=1;" vertex="1" parent="1">
          <mxGeometry x="690" y="470" width="153.27" height="60" as="geometry" />
        </mxCell>
        <mxCell id="1YBdiQAtLYqquhOwN3TU-74" value="" style="edgeStyle=orthogonalEdgeStyle;rounded=0;orthogonalLoop=1;jettySize=auto;html=1;" edge="1" parent="1" source="1YBdiQAtLYqquhOwN3TU-63" target="1YBdiQAtLYqquhOwN3TU-71">
          <mxGeometry relative="1" as="geometry" />
        </mxCell>
        <mxCell id="1YBdiQAtLYqquhOwN3TU-63" value="Result" style="shape=document;whiteSpace=wrap;html=1;boundedLbl=1;" vertex="1" parent="1">
          <mxGeometry x="511.88" y="620" width="120" height="80" as="geometry" />
        </mxCell>
        <mxCell id="1YBdiQAtLYqquhOwN3TU-71" value="КОНЕЦ" style="rounded=1;whiteSpace=wrap;html=1;" vertex="1" parent="1">
          <mxGeometry x="512" y="767" width="120" height="60" as="geometry" />
        </mxCell>
      </root>
    </mxGraphModel>
  </diagram>
</mxfile>
